<svg width="393" height="200" viewBox="0 0 393 200" fill="none" xmlns="http://www.w3.org/2000/svg">
<path d="M393 192.793L384.812 191.463C376.625 190.033 360.25 187.523 343.875 180.748C327.5 173.973 311.125 163.433 294.75 167.373C278.375 171.463 262 190.033 245.625 196.809C229.25 203.584 212.875 198.063 196.5 194.123C180.125 190.033 163.75 187.524 147.375 182.078C131 176.733 114.625 168.703 98.25 171.388C81.875 173.972 65.5 187.524 49.125 190.108C32.7501 192.793 16.375 184.763 8.1875 180.748L0 176.732V0H393V192.793Z" fill="url(#paint0_linear_67_52)"/>
<defs>
<linearGradient id="paint0_linear_67_52" x1="196.5" y1="0" x2="196.5" y2="200.001" gradientUnits="userSpaceOnUse">
<stop stop-color="#EDF7F6"/>
<stop offset="0.9999" stop-color="#1C69AE"/>
</linearGradient>
</defs>
</svg>
