<svg width="24" height="24" viewBox="0 0 24 24" fill="none" xmlns="http://www.w3.org/2000/svg">
<g id="DashboardIcon">
<path id="icon/social/poll_24px" d="M19 3C20.1 3 21 3.9 21 5V19C21 20.1 20.1 21 19 21H5C3.9 21 3 20.1 3 19V5C3 3.9 3.9 3 5 3H19ZM8 10C7.45 10 7 10.45 7 11V16C7 16.55 7.45 17 8 17C8.55 17 9 16.55 9 16V11C9 10.45 8.55 10 8 10ZM12 7C11.45 7 11 7.45 11 8V16C11 16.55 11.45 17 12 17C12.55 17 13 16.55 13 16V8C13 7.45 12.55 7 12 7ZM16 13C15.45 13 15 13.45 15 14V16C15 16.55 15.45 17 16 17C16.55 17 17 16.55 17 16V14C17 13.45 16.55 13 16 13Z" fill="#EDF7F6"/>
</g>
</svg>
