<svg width="24" height="24" viewBox="0 0 24 24" fill="none" xmlns="http://www.w3.org/2000/svg">
<path d="M4.92188 3.41897C5.00318 3.41929 5.00318 3.41929 5.08612 3.41961C5.21888 3.42016 5.35163 3.42093 5.48438 3.4219C5.48577 3.46258 5.48577 3.46258 5.48719 3.50408C5.52122 4.44891 5.56011 5.27651 6.29004 5.96194C6.8461 6.41053 7.44577 6.48302 8.13398 6.48165C8.20202 6.48185 8.27005 6.4821 8.33809 6.48237C8.52182 6.483 8.70554 6.48303 8.88927 6.48291C9.04314 6.48286 9.19701 6.48309 9.35088 6.48331C9.71414 6.48383 10.0774 6.48386 10.4407 6.48357C10.8143 6.48329 11.188 6.48387 11.5616 6.48486C11.8835 6.48569 12.2053 6.48597 12.5271 6.48582C12.7189 6.48573 12.9106 6.48585 13.1024 6.48651C13.2829 6.4871 13.4633 6.487 13.6437 6.48639C13.7096 6.48628 13.7754 6.48641 13.8413 6.4868C14.5639 6.49076 15.2064 6.33577 15.7451 5.82955C16.2188 5.29784 16.3318 4.71499 16.3447 4.02542C16.3463 3.96717 16.3479 3.90892 16.3496 3.8489C16.3534 3.70657 16.3567 3.56425 16.3594 3.4219C16.543 3.41913 16.7266 3.4175 16.9102 3.41604C16.9613 3.41525 17.0125 3.41447 17.0652 3.41366C17.9328 3.40853 18.647 3.63371 19.2949 4.22463C19.8517 4.81567 20.0465 5.52128 20.0369 6.3187C20.0369 6.3796 20.037 6.4405 20.037 6.50325C20.037 6.66796 20.036 6.83264 20.0346 6.99734C20.0335 7.17032 20.0334 7.34329 20.0331 7.51627C20.0326 7.8428 20.031 8.16932 20.0291 8.49584C20.027 8.86802 20.026 9.24019 20.0251 9.61237C20.0231 10.377 20.0198 11.1416 20.0156 11.9063C19.9644 11.9219 19.9132 11.9376 19.8604 11.9537C19.7924 11.9747 19.7244 11.9957 19.6564 12.0167C19.6227 12.027 19.5891 12.0372 19.5544 12.0478C18.7897 12.2845 18.2764 12.7876 17.7235 13.3417C17.6643 13.4008 17.605 13.4598 17.5458 13.5188C17.386 13.6779 17.2266 13.8373 17.0673 13.9967C16.9339 14.1302 16.8003 14.2635 16.6667 14.3969C16.3517 14.7114 16.0368 15.0262 15.7221 15.3412C15.3981 15.6656 15.0736 15.9895 14.7489 16.3132C14.4693 16.5919 14.1901 16.8709 13.911 17.1501C13.7447 17.3165 13.5783 17.4828 13.4116 17.6489C13.2549 17.8049 13.0986 17.9613 12.9426 18.1179C12.8854 18.1752 12.8282 18.2324 12.7708 18.2894C12.2363 18.8205 11.9483 19.2847 11.8207 20.0323C11.8137 20.0728 11.8066 20.1133 11.7993 20.1551C11.7845 20.2402 11.7699 20.3254 11.7555 20.4107C11.7336 20.539 11.7108 20.6672 11.6879 20.7954C11.5866 21.3778 11.5384 21.9107 11.625 22.5C10.6454 22.5044 9.66585 22.5077 8.68627 22.5097C8.23138 22.5107 7.7765 22.512 7.32162 22.5142C6.92493 22.516 6.52825 22.5172 6.13156 22.5177C5.9217 22.5179 5.71186 22.5185 5.50201 22.5198C5.30406 22.5211 5.10612 22.5215 4.90816 22.5212C4.83593 22.5213 4.76369 22.5216 4.69146 22.5224C3.91403 22.5298 3.2308 22.3416 2.65095 21.8011C2.16483 21.3237 1.85501 20.719 1.82209 20.0299C1.82201 19.9867 1.82192 19.9434 1.82183 19.8989C1.82152 19.8235 1.82152 19.8235 1.8212 19.7466C1.82121 19.6919 1.82122 19.6372 1.82123 19.5809C1.82106 19.5223 1.82088 19.4638 1.82071 19.4036C1.82024 19.2415 1.82006 19.0794 1.81994 18.9173C1.81975 18.7424 1.81931 18.5674 1.8189 18.3925C1.81797 17.9701 1.8175 17.5477 1.81708 17.1253C1.81688 16.9262 1.81662 16.7271 1.81638 16.5279C1.81558 15.8655 1.8149 15.2031 1.81456 14.5407C1.81447 14.3689 1.81438 14.1971 1.81429 14.0253C1.81427 13.9826 1.81425 13.94 1.81422 13.896C1.81383 13.2049 1.81265 12.5138 1.81112 11.8228C1.80957 11.1125 1.80873 10.4022 1.80858 9.69192C1.80848 9.29344 1.80807 8.89496 1.80687 8.49648C1.80585 8.157 1.80548 7.81753 1.80593 7.47805C1.80614 7.30508 1.80606 7.13213 1.80514 6.95916C1.8 5.92828 1.82545 5.01442 2.57245 4.21584C3.26114 3.58676 4.00469 3.41214 4.92188 3.41897ZM5.98535 9.66213C5.87717 9.84645 5.84475 10.0056 5.85938 10.2188C5.92692 10.4459 6.0522 10.5782 6.26035 10.6937C6.52429 10.7873 6.8191 10.7598 7.09627 10.7579C7.16975 10.7581 7.24323 10.7584 7.31671 10.7587C7.51564 10.7593 7.71455 10.7588 7.91348 10.758C8.12192 10.7574 8.33036 10.7577 8.53881 10.7579C8.88876 10.758 9.2387 10.7574 9.58865 10.7563C9.99298 10.755 10.3973 10.7549 10.8016 10.7555C11.191 10.756 11.5804 10.7557 11.9697 10.755C12.1353 10.7548 12.3008 10.7548 12.4663 10.755C12.6613 10.7552 12.8562 10.7547 13.0512 10.7537C13.1226 10.7535 13.1941 10.7535 13.2656 10.7537C13.3633 10.754 13.461 10.7534 13.5587 10.7526C13.6133 10.7525 13.6679 10.7523 13.7242 10.7522C13.9568 10.7247 14.1083 10.6469 14.2646 10.4737C14.3985 10.2803 14.4152 10.1228 14.3906 9.89065C14.3068 9.69655 14.1876 9.58915 14.0156 9.46877C13.8587 9.41645 13.7407 9.41574 13.5753 9.41532C13.5447 9.41518 13.5142 9.41504 13.4827 9.41489C13.3801 9.41449 13.2776 9.41442 13.175 9.41435C13.1016 9.41413 13.0281 9.41389 12.9547 9.41364C12.755 9.41303 12.5552 9.41272 12.3555 9.41252C12.2308 9.41238 12.106 9.41219 11.9812 9.41198C11.5909 9.41133 11.2006 9.41088 10.8102 9.4107C10.3596 9.41049 9.90899 9.40967 9.45837 9.40831C9.11008 9.4073 8.76179 9.40682 8.41349 9.40676C8.20546 9.40671 7.99744 9.40644 7.78941 9.4056C7.59369 9.40483 7.39797 9.40472 7.20225 9.40514C7.13048 9.40517 7.05872 9.40497 6.98695 9.4045C6.88882 9.40391 6.79073 9.40418 6.69261 9.40467C6.61031 9.40457 6.61031 9.40457 6.52635 9.40446C6.30337 9.43015 6.14955 9.51125 5.98535 9.66213ZM5.96192 13.5352C5.86033 13.7277 5.82779 13.9108 5.89032 14.1184C5.98238 14.3208 6.07053 14.4417 6.28125 14.5313C6.45224 14.5865 6.61575 14.5847 6.79464 14.5857C6.84327 14.5861 6.84327 14.5861 6.89288 14.5864C6.99986 14.5871 7.10683 14.5874 7.21381 14.5877C7.28842 14.5879 7.36304 14.5882 7.43765 14.5885C7.59404 14.589 7.75043 14.5892 7.90683 14.5894C8.10668 14.5897 8.30653 14.5908 8.50638 14.5921C8.66052 14.593 8.81466 14.5932 8.96881 14.5933C9.04246 14.5935 9.11611 14.5938 9.18975 14.5944C9.29307 14.5953 9.39635 14.5952 9.49966 14.5949C9.58765 14.5951 9.58765 14.5951 9.67743 14.5954C9.92581 14.5696 10.1095 14.5049 10.2832 14.3174C10.4241 14.1061 10.4362 13.9383 10.4063 13.6875C10.2927 13.4517 10.1764 13.3633 9.9375 13.2656C9.81405 13.2524 9.70188 13.2459 9.57871 13.2467C9.52652 13.2462 9.52652 13.2462 9.47327 13.2457C9.35896 13.2449 9.24468 13.2451 9.13037 13.2453C9.05052 13.2451 8.97068 13.2449 8.89083 13.2446C8.72376 13.2442 8.55671 13.2443 8.38964 13.2447C8.1759 13.2453 7.9622 13.2443 7.74847 13.243C7.58367 13.2421 7.41888 13.2421 7.25408 13.2424C7.17529 13.2424 7.0965 13.2421 7.01771 13.2415C6.90742 13.2408 6.7972 13.2413 6.68692 13.2421C6.65462 13.2417 6.62233 13.2412 6.58905 13.2408C6.31677 13.2449 6.15377 13.3499 5.96192 13.5352Z" fill="#EDF7F6"/>
<path d="M8.05538 1.47043C8.12503 1.47019 8.19468 1.46985 8.26433 1.46941C8.45241 1.46855 8.64047 1.46915 8.82855 1.47007C9.02594 1.47084 9.22333 1.47043 9.42072 1.47019C9.75206 1.46998 10.0834 1.47072 10.4147 1.47203C10.7972 1.47353 11.1796 1.47353 11.5621 1.47272C11.9309 1.47198 12.2996 1.4723 12.6684 1.4731C12.825 1.47342 12.9815 1.47337 13.1381 1.47302C13.3226 1.47266 13.5071 1.47324 13.6916 1.47452C13.7591 1.47484 13.8266 1.47485 13.8941 1.47451C14.3218 1.47261 14.632 1.48825 14.9645 1.77961C14.9897 1.81013 15.015 1.84064 15.041 1.87208C15.067 1.90248 15.093 1.93287 15.1198 1.96418C15.2439 2.14435 15.2928 2.30927 15.2956 2.5269C15.2964 2.57136 15.2971 2.61581 15.2979 2.66161C15.2981 2.70917 15.2984 2.75673 15.2987 2.80574C15.2991 2.85528 15.2995 2.90481 15.2999 2.95585C15.3006 3.06062 15.301 3.16538 15.3012 3.27015C15.3018 3.42931 15.3041 3.58839 15.3064 3.74754C15.3069 3.84962 15.3072 3.9517 15.3074 4.05378C15.3084 4.10087 15.3093 4.14796 15.3102 4.19647C15.3081 4.52888 15.2365 4.78631 15.0469 5.06251C14.7694 5.33005 14.4867 5.44883 14.0984 5.45005C14.0407 5.45045 13.983 5.45085 13.9236 5.45126C13.8602 5.45123 13.7969 5.45118 13.7336 5.45113C13.6664 5.45141 13.5993 5.45173 13.5321 5.45208C13.3501 5.45291 13.1681 5.45313 12.9861 5.45319C12.8723 5.45326 12.7584 5.45346 12.6445 5.45371C12.2467 5.45457 11.849 5.45496 11.4512 5.45488C11.0812 5.45483 10.7113 5.45582 10.3413 5.4573C10.023 5.45853 9.70476 5.45903 9.38648 5.45897C9.19668 5.45894 9.00689 5.45921 8.81709 5.4602C8.6384 5.46111 8.45974 5.46111 8.28105 5.46043C8.21579 5.46034 8.15053 5.46055 8.08527 5.46112C7.66464 5.46456 7.26361 5.44952 6.93092 5.16386C6.5577 4.79271 6.54596 4.32848 6.54312 3.82995C6.54323 3.74429 6.54358 3.65862 6.54417 3.57296C6.54493 3.44253 6.54418 3.31217 6.54328 3.18174C6.54337 3.09767 6.54356 3.01359 6.54383 2.92952C6.54355 2.89113 6.54326 2.85273 6.54297 2.81318C6.5478 2.41046 6.65487 2.03065 6.93751 1.73439C7.27844 1.46027 7.63536 1.46672 8.05538 1.47043Z" fill="#EDF7F6"/>
<path d="M17.4375 15.0938C17.6144 15.1764 17.7273 15.2785 17.8657 15.4176C17.8891 15.4409 17.9124 15.4643 17.9365 15.4883C18.0133 15.5652 18.0898 15.6424 18.1663 15.7196C18.2196 15.7731 18.2729 15.8266 18.3262 15.88C18.4664 16.0205 18.6063 16.1613 18.7461 16.3021C18.8889 16.4459 19.0319 16.5894 19.175 16.7329C19.4555 17.0144 19.7356 17.2962 20.0156 17.5781C19.9484 17.7311 19.8659 17.834 19.7489 17.9527C19.6949 18.0078 19.6949 18.0078 19.6398 18.064C19.6003 18.1039 19.5607 18.1438 19.52 18.1849C19.4783 18.2272 19.4367 18.2695 19.3938 18.3131C19.2559 18.4533 19.1174 18.593 18.9789 18.7326C18.9311 18.7808 18.8833 18.8291 18.8355 18.8773C18.6366 19.078 18.4375 19.2786 18.2381 19.4789C17.9531 19.7652 17.6688 20.0522 17.3855 20.3402C17.1859 20.5431 16.9855 20.7451 16.7844 20.9466C16.6646 21.0667 16.5451 21.1872 16.4264 21.3085C16.2938 21.4442 16.1595 21.578 16.025 21.7118C15.9865 21.7518 15.9479 21.7918 15.9081 21.8329C15.6285 22.1071 15.3843 22.2043 15 22.2656C14.9395 22.278 14.879 22.2904 14.8167 22.3031C14.6445 22.3331 14.4722 22.3627 14.2998 22.3916C14.2107 22.4074 14.2107 22.4074 14.1197 22.4236C13.1432 22.5882 13.1432 22.5882 12.8723 22.4378C12.7329 22.3264 12.6664 22.2491 12.6094 22.0781C12.5884 21.7664 12.621 21.4636 12.6713 21.1564C12.6779 21.1153 12.6845 21.0742 12.6913 21.0318C12.7054 20.9457 12.7196 20.8596 12.7341 20.7735C12.7558 20.6427 12.776 20.5118 12.7961 20.3807C12.8101 20.2965 12.8241 20.2123 12.8383 20.1281C12.844 20.0894 12.8497 20.0508 12.8556 20.011C12.9416 19.5259 13.3 19.2176 13.6379 18.8827C13.6791 18.8415 13.7203 18.8003 13.7628 18.7578C13.8747 18.6459 13.9869 18.5342 14.0992 18.4226C14.2168 18.3055 14.3342 18.1882 14.4516 18.0709C14.6735 17.8492 14.8957 17.6278 15.118 17.4065C15.3712 17.1544 15.6241 16.9019 15.877 16.6495C16.3969 16.1306 16.9171 15.6121 17.4375 15.0938Z" fill="#EDF7F6"/>
<path d="M21.4552 13.2783C21.8475 13.5748 22.1004 13.998 22.1719 14.4844C22.2281 15.0274 22.0932 15.4981 21.7516 15.9211C21.5892 16.1087 21.4146 16.2827 21.2373 16.4561C21.2008 16.4922 21.1643 16.5283 21.1266 16.5655C21.0378 16.6533 20.9487 16.7408 20.8594 16.8281C20.6801 16.7541 20.567 16.6409 20.4311 16.5043C20.4078 16.481 20.3844 16.4576 20.3604 16.4336C20.2836 16.3567 20.2071 16.2795 20.1306 16.2023C20.0773 16.1488 20.024 16.0953 19.9706 16.0419C19.8305 15.9014 19.6906 15.7606 19.5508 15.6198C19.408 15.476 19.2649 15.3325 19.1219 15.189C18.8414 14.9075 18.5612 14.6257 18.2812 14.3438C18.3944 14.107 18.5658 13.9482 18.75 13.7637C18.7837 13.7289 18.8173 13.6941 18.852 13.6582C19.5868 12.9195 20.5474 12.6947 21.4552 13.2783Z" fill="#EDF7F6"/>
</svg>
