<svg width="24" height="24" viewBox="0 0 24 24" fill="none" xmlns="http://www.w3.org/2000/svg">
<g clip-path="url(#clip0_51_25)">
<path d="M9 6C12.465 6 15.93 6 19.5 6C19.5 7.50047 19.5 9.00094 19.5 10.5469C18.9663 10.5701 18.9663 10.5701 18.4219 10.5938C18.5379 10.6189 18.6539 10.644 18.7734 10.6699C20.4734 11.0611 22.0254 12.1183 22.9688 13.5938C23.6593 14.7494 24.0107 15.9195 24.0117 17.2676C24.0118 17.3035 24.0118 17.3393 24.0118 17.3763C24.0111 17.8943 23.9961 18.3879 23.8594 18.8906C23.8508 18.9221 23.8423 18.9535 23.8335 18.9859C23.4909 20.2192 22.8821 21.2664 21.9844 22.1719C21.9446 22.2123 21.9047 22.2527 21.8637 22.2944C20.6351 23.4741 18.9615 24.0573 17.2793 24.0586C17.2255 24.0586 17.2255 24.0586 17.1705 24.0587C16.6514 24.058 16.1607 24.0393 15.6562 23.9062C15.5942 23.8918 15.5321 23.8773 15.47 23.8629C14.2793 23.5663 13.234 22.8923 12.375 22.0312C12.3146 21.9717 12.3146 21.9717 12.2531 21.9109C11.0724 20.6835 10.4896 19.0077 10.4883 17.3262C10.4882 17.2723 10.4882 17.2723 10.4882 17.2174C10.4889 16.6983 10.5076 16.2076 10.6406 15.7031C10.6551 15.6411 10.6696 15.579 10.684 15.5169C10.8895 14.6927 11.2898 13.8865 11.8125 13.2188C11.8456 13.1754 11.8786 13.1321 11.9127 13.0875C12.6743 12.1207 13.6403 11.401 14.7861 10.9541C14.8235 10.9394 14.8608 10.9247 14.8993 10.9096C15.289 10.7647 15.6642 10.6911 16.0781 10.5938C12.5745 10.5705 12.5745 10.5705 9 10.5469C9 9.04641 9 7.54594 9 6ZM10.5 7.54688C10.5 8.02641 10.5 8.50594 10.5 9C12.9595 9 15.4191 9 17.9531 9C17.9531 8.52047 17.9531 8.04094 17.9531 7.54688C15.4936 7.54688 13.0341 7.54688 10.5 7.54688ZM16.5 13.5469C16.5 14.5369 16.5 15.5269 16.5 16.5469C15.51 16.5469 14.52 16.5469 13.5 16.5469C13.5 17.0419 13.5 17.5369 13.5 18.0469C14.49 18.0469 15.48 18.0469 16.5 18.0469C16.5 19.0369 16.5 20.0269 16.5 21.0469C16.9795 21.0469 17.4591 21.0469 17.9531 21.0469C17.9531 20.0569 17.9531 19.0669 17.9531 18.0469C18.9586 18.0469 19.9641 18.0469 21 18.0469C21 17.5519 21 17.0569 21 16.5469C19.9945 16.5469 18.9891 16.5469 17.9531 16.5469C17.9531 15.5569 17.9531 14.5669 17.9531 13.5469C17.4736 13.5469 16.9941 13.5469 16.5 13.5469Z" fill="#EDF7F6"/>
<path d="M1.91432 -0.0356888C1.99831 -0.0360133 2.08231 -0.0364603 2.16631 -0.0370184C2.39592 -0.0381877 2.62549 -0.0376143 2.85509 -0.036741C3.10318 -0.0361029 3.35126 -0.0370877 3.59935 -0.0378603C4.08487 -0.0391094 4.57038 -0.0388415 5.0559 -0.0380255C5.45058 -0.0373897 5.84525 -0.0373045 6.23992 -0.0376104C6.29615 -0.0376534 6.35237 -0.0376965 6.4103 -0.0377409C6.52452 -0.0378309 6.63874 -0.0379221 6.75297 -0.0380145C7.82345 -0.038816 8.89393 -0.0378951 9.96441 -0.0363831C10.8825 -0.0351266 11.8005 -0.0353449 12.7186 -0.0366415C13.7853 -0.0381475 14.852 -0.0387388 15.9187 -0.0378756C16.0325 -0.037786 16.1463 -0.0376976 16.2601 -0.0376104C16.3161 -0.037567 16.3721 -0.0375236 16.4297 -0.0374789C16.8238 -0.0372363 17.2179 -0.0376454 17.612 -0.0383077C18.0924 -0.0390974 18.5729 -0.0388812 19.0533 -0.037385C19.2983 -0.036647 19.5433 -0.0363544 19.7883 -0.0372863C20.0128 -0.0381274 20.2373 -0.0376591 20.4618 -0.0361677C20.5428 -0.0358547 20.6238 -0.0360105 20.7047 -0.0366952C21.2301 -0.0407943 21.6753 0.0108888 22.0884 0.372322C22.5644 0.85564 22.5261 1.44621 22.5213 2.07756C22.5212 2.17415 22.5213 2.27074 22.5214 2.36733C22.5214 2.6285 22.5203 2.88966 22.519 3.15083C22.5178 3.42415 22.5177 3.69748 22.5175 3.9708C22.5169 4.48792 22.5154 5.00503 22.5135 5.52214C22.5114 6.11105 22.5104 6.69997 22.5094 7.28888C22.5075 8.49989 22.5042 9.7109 22.5 10.9219C22.4615 10.8928 22.4615 10.8928 22.4222 10.8632C22.3885 10.8378 22.3547 10.8125 22.32 10.7863C22.2866 10.7611 22.2532 10.736 22.2187 10.71C22.1163 10.6342 22.0117 10.5641 21.9034 10.4967C21.8657 10.4731 21.828 10.4495 21.7892 10.4251C21.7511 10.4015 21.7131 10.3779 21.6738 10.3535C21.597 10.3056 21.5202 10.2576 21.4435 10.2096C21.41 10.1888 21.3766 10.168 21.3421 10.1466C21.2111 10.0634 21.0823 9.97675 20.9531 9.89065C20.9531 8.11174 20.9531 6.33284 20.9531 4.50003C14.5491 4.50003 8.14501 4.50003 1.54688 4.50003C1.54688 9.94503 1.54688 15.39 1.54688 21C4.28509 20.9666 4.28509 20.9666 7.02316 20.924C7.55344 20.9202 7.55344 20.9202 7.8019 20.9195C7.97506 20.9187 8.148 20.9156 8.32109 20.9109C9.74387 20.8747 9.74387 20.8747 10.0628 21.0812C10.2487 21.2741 10.3374 21.484 10.4136 21.7373C10.4801 21.9166 10.5978 22.0534 10.7197 22.1983C10.9219 22.4486 10.9219 22.4486 10.9219 22.5C7.31766 22.5 3.71344 22.5 4.87829e-06 22.5C-0.00755725 17.1549 -0.00755725 17.1549 -0.0091504 14.9248C-0.00949414 14.4468 -0.00984562 13.9688 -0.0102188 13.4908C-0.0102694 13.426 -0.0103197 13.3612 -0.0103697 13.2964C-0.0111696 12.263 -0.0125763 11.2297 -0.0143008 10.1964C-0.0161202 9.10417 -0.0172445 8.01194 -0.0176367 6.91971C-0.0178941 6.26545 -0.0187073 5.6112 -0.0202295 4.95695C-0.02122 4.50841 -0.0215203 4.05988 -0.0212767 3.61135C-0.0211565 3.3525 -0.0213418 3.09365 -0.0223461 2.8348C-0.0232592 2.59774 -0.0233043 2.3607 -0.0226637 2.12365C-0.0225846 2.03796 -0.0228219 1.95228 -0.0234108 1.8666C-0.0271086 1.29528 -0.000926776 0.799317 0.415625 0.366051C0.869911 -0.0190533 1.34919 -0.0404661 1.91432 -0.0356888Z" fill="#EDF7F6"/>
<path d="M2.95312 7.45312C4.45359 7.45312 5.95406 7.45312 7.5 7.45312C7.5 7.96359 7.5 8.47406 7.5 9C5.99953 9 4.49906 9 2.95312 9C2.95312 8.48953 2.95312 7.97906 2.95312 7.45312Z" fill="#EDF7F6"/>
<path d="M3.28791 14.9468C3.32931 14.9469 3.37071 14.947 3.41336 14.9471C3.45673 14.947 3.50009 14.9469 3.54477 14.9468C3.68887 14.9466 3.83296 14.9468 3.97705 14.9469C4.07671 14.9469 4.17637 14.9468 4.27603 14.9468C4.4852 14.9467 4.69437 14.9468 4.90354 14.947C5.17231 14.9473 5.44108 14.9471 5.70986 14.9469C5.91574 14.9467 6.12162 14.9467 6.3275 14.9469C6.42664 14.9469 6.52577 14.9469 6.6249 14.9468C6.76319 14.9466 6.90148 14.9468 7.03976 14.9471C7.08116 14.947 7.12256 14.9469 7.16521 14.9468C7.44777 14.9478 7.44777 14.9478 7.5 15C7.5 15.495 7.5 15.99 7.5 16.5C5.99953 16.5 4.49906 16.5 2.95312 16.5C2.95312 14.948 2.95312 14.948 3.28791 14.9468Z" fill="#EDF7F6"/>
</g>
<defs>
<clipPath id="clip0_51_25">
<rect width="24" height="24" fill="white"/>
</clipPath>
</defs>
</svg>
