<svg width="24" height="24" viewBox="0 0 24 24" fill="none" xmlns="http://www.w3.org/2000/svg">
<path d="M20.9024 12.0071C20.9027 11.7425 20.7978 11.4888 20.6107 11.3017C20.4237 11.1147 20.1699 11.0097 19.9054 11.01L12.997 11.003L12.997 4.08746C12.9973 3.82294 12.8923 3.56918 12.7053 3.38213C12.5182 3.19509 12.2645 3.09014 11.9999 3.09044C11.4484 3.09044 11.0029 3.53592 11.0029 4.08746L11.0029 11.003L4.08742 11.003C3.53588 11.003 3.0904 11.4484 3.0904 12C3.0904 12.5515 3.53588 12.997 4.08742 12.997L11.0029 12.997L11.0029 19.9125C11.0029 20.4641 11.4484 20.9095 11.9999 20.9095C12.5515 20.9095 12.997 20.4641 12.997 19.9125V12.997L19.9125 12.997C20.4499 12.997 20.9024 12.5445 20.9024 12.0071Z" fill="#EDF7F6"/>
</svg>
