<svg width="24" height="24" viewBox="0 0 24 24" fill="none" xmlns="http://www.w3.org/2000/svg">
<g id="ProfileIcon">
<path id="icon/action/account_circle_24px" d="M12 2C17.52 2 22 6.48 22 12C22 17.52 17.52 22 12 22C6.48 22 2 17.52 2 12C2 6.48 6.48 2 12 2ZM12 12.9004C10 12.9004 6.03 13.9905 6 15.9805C7.29003 17.9203 9.50014 19.2002 12 19.2002C14.4999 19.2002 16.71 17.9203 18 15.9805C17.97 13.9905 13.99 12.9004 12 12.9004ZM12 5C10.34 5 9 6.34 9 8C9 9.66 10.34 11 12 11C13.66 11 15 9.66 15 8C15 6.34 13.66 5 12 5Z" fill="#0D160B"/>
</g>
</svg>
